<?xml version="1.0" standalone="no"?>
<!DOCTYPE svg PUBLIC "-//W3C//DTD SVG 20010904//EN"
 "http://www.w3.org/TR/2001/REC-SVG-20010904/DTD/svg10.dtd">
<svg version="1.0" xmlns="http://www.w3.org/2000/svg"
 width="164.000000pt" height="150.000000pt" viewBox="0 0 164.000000 150.000000"
 preserveAspectRatio="xMidYMid meet">

<g transform="translate(0.000000,150.000000) scale(0.100000,-0.100000)"
fill="#000000" stroke="none">
<path d="M496 772 c-179 -358 -326 -655 -326 -659 0 -5 295 -8 655 -8 360 0
655 2 654 5 0 3 -148 300 -328 660 l-328 655 -327 -653z m503 48 c93 -187 172
-349 176 -360 6 -20 2 -20 -229 -20 -130 0 -236 2 -236 5 0 2 10 25 22 49 l22
45 133 3 133 3 -96 190 c-53 105 -98 192 -100 194 -3 3 -304 -594 -304 -604 0
-3 164 -5 365 -5 l365 0 25 -50 25 -50 -475 0 -475 0 235 470 c129 259 237
470 240 470 3 0 81 -153 174 -340z"/>
</g>
</svg>
